# File created by Blade
# Date/Time:  Wed Jan 21 16:14:13 2015
# Frame Rate: 120.000 fps
#------------------------------------------------------
:FULLY-SPECIFIED
:DEGREES
581
root 18.813205 35.582742 -19.697977 -170.808678 -5.225925 -179.106832
Spine -19.709284 -0.301535 0.032954
Head 9.726804 -3.025975 -1.748508
LeftShoulder -7.983594 -35.538188 16.979950
LeftArm 10.449057 12.380219 -6.573102
LeftForeArm 15.027514 -0.000000 -2.114819
LeftHand -10.110598 -0.000000 -4.273428
LeftHandThumb1 -26.253704 0.000000 33.147579
RightShoulder -9.020905 0.042510 -10.642973
RightArm 7.233561 38.519491 9.226216
RightForeArm -34.396250 0.000000 2.520719
RightHand -4.330020 -0.000000 9.381568
RightHandThumb1 -24.326973 -0.000000 -32.862282
LeftUpLeg -3.098604 6.141606 0.456535
LeftLeg -4.531609 -0.000000 0.000000
LeftFoot -20.363382 24.984117 -11.854946
LeftToeBase 27.238335 -0.000000 -0.000000
RightUpLeg -2.856479 -9.058588 2.615472
RightLeg -3.008193 -0.000000 0.000000
RightFoot -21.363815 -28.134046 14.237817
RightToeBase 23.467960 -0.000000 -0.000000
582
root 18.807654 35.580203 -19.717145 -170.854701 -5.219928 -179.118396
Spine -19.688338 -0.268247 0.035767
Head 9.772862 -3.019313 -1.747316
LeftShoulder -8.035364 -35.391775 16.994713
LeftArm 10.418801 12.450363 -6.580032
LeftForeArm 14.934390 -0.000000 -2.147513
LeftHand -10.061769 -0.000000 -4.280588
LeftHandThumb1 -26.253704 0.000000 33.147579
RightShoulder -9.060700 -0.035470 -10.614517
RightArm 7.159588 38.522653 9.194528
RightForeArm -34.369961 -0.000000 2.533712
RightHand -4.377888 0.000000 9.462775
RightHandThumb1 -24.326973 -0.000000 -32.862282
LeftUpLeg -3.028532 6.142777 0.446527
LeftLeg -4.509900 -0.000000 0.000000
LeftFoot -20.419823 24.969330 -11.883970
LeftToeBase 27.232396 -0.000000 -0.000000
RightUpLeg -2.782620 -9.038820 2.584156
RightLeg -2.999532 -0.000000 0.000000
RightFoot -21.404719 -28.151186 14.277211
RightToeBase 23.359981 -0.000000 -0.000000
583
root 18.802526 35.577500 -19.736641 -170.917850 -5.207719 -179.128143
Spine -19.642551 -0.234152 0.038014
Head 9.808041 -2.972864 -1.723026
LeftShoulder -8.085002 -35.277604 17.006925
LeftArm 10.385144 12.665234 -6.559881
LeftForeArm 14.780661 -0.000000 -2.144941
LeftHand -10.078522 -0.000000 -4.302082
LeftHandThumb1 -26.253704 0.000000 33.147579
RightShoulder -9.117540 -0.106096 -10.572658
RightArm 7.152524 38.635493 9.190384
RightForeArm -34.347495 -0.000000 2.520612
RightHand -4.387773 -0.000000 9.499913
RightHandThumb1 -24.326973 -0.000000 -32.862282
LeftUpLeg -2.935788 6.149539 0.441137
LeftLeg -4.498992 -0.000000 0.000000
LeftFoot -20.473480 24.964324 -11.910151
LeftToeBase 27.233868 -0.000000 -0.000000
RightUpLeg -2.684605 -8.986767 2.553749
RightLeg -3.001652 -0.000000 0.000000
RightFoot -21.448268 -28.228559 14.229039
RightToeBase 23.467930 -0.000000 -0.000000
584
root 18.795753 35.574218 -19.760721 -171.021757 -5.231214 -179.140238
Spine -19.557847 -0.234633 0.057009
Head 9.880912 -2.917288 -1.730426
LeftShoulder -8.139986 -35.166351 17.002525
LeftArm 10.376473 12.899745 -6.533344
LeftForeArm 14.688523 -0.000000 -2.146222
LeftHand -10.137233 -0.000000 -4.376076
LeftHandThumb1 -26.253704 0.000000 33.147579
RightShoulder -9.183790 -0.200072 -10.543159
RightArm 7.167876 38.792456 9.209587
RightForeArm -34.414861 -0.000000 2.548173
RightHand -4.475092 -0.000000 9.602401
RightHandThumb1 -24.326973 -0.000000 -32.862282
LeftUpLeg -2.791055 6.097170 0.443478
LeftLeg -4.500775 -0.000000 0.000000
LeftFoot -20.585706 24.937691 -12.013826
LeftToeBase 27.322056 -0.000000 -0.000000
RightUpLeg -2.528836 -9.005363 2.518520
RightLeg -3.018233 -0.000000 0.000000
RightFoot -21.478710 -28.271027 14.182438
RightToeBase 23.508456 -0.000000 -0.000000
585
root 18.789877 35.570943 -19.784697 -171.135178 -5.239123 -179.149307
Spine -19.451086 -0.209461 0.069667
Head 9.929301 -2.825556 -1.717608
LeftShoulder -8.192633 -35.081348 16.994062
LeftArm 10.379649 13.113931 -6.506143
LeftForeArm 14.635050 -0.000000 -2.161440
LeftHand -10.126300 -0.000000 -4.427492
LeftHandThumb1 -26.253704 0.000000 33.147579
RightShoulder -9.232164 -0.188280 -10.550438
RightArm 7.103648 38.802481 9.210089
RightForeArm -34.486947 0.000000 2.578772
RightHand -4.508406 -0.000000 9.635890
RightHandThumb1 -24.326973 -0.000000 -32.862282
LeftUpLeg -2.633853 6.045831 0.451701
LeftLeg -4.501303 -0.000000 0.000000
LeftFoot -20.601877 24.992064 -11.983603
LeftToeBase 27.245696 -0.000000 -0.000000
RightUpLeg -2.368242 -9.026521 2.484576
RightLeg -3.028896 -0.000000 0.000000
RightFoot -21.508477 -28.277893 14.176382
RightToeBase 23.466870 -0.000000 -0.000000
586
root 18.784071 35.567508 -19.806989 -171.234315 -5.260442 -179.161494
Spine -19.363089 -0.204011 0.082260
Head 9.982184 -2.765653 -1.710833
LeftShoulder -8.249622 -35.008049 16.990365
LeftArm 10.387451 13.311150 -6.482424
LeftForeArm 14.554162 -0.000000 -2.191907
LeftHand -10.081007 0.000000 -4.322294
LeftHandThumb1 -26.253704 0.000000 33.147579
RightShoulder -9.266503 -0.205873 -10.539391
RightArm 7.054472 38.903483 9.199184
RightForeArm -34.554697 -0.000000 2.585631
RightHand -4.473987 -0.000000 9.661107
RightHandThumb1 -24.326973 -0.000000 -32.862282
LeftUpLeg -2.501450 6.003312 0.454514
LeftLeg -4.486518 -0.000000 0.000000
LeftFoot -20.652800 24.978626 -11.985941
LeftToeBase 27.261265 -0.000000 -0.000000
RightUpLeg -2.217201 -9.052810 2.450011
RightLeg -3.051765 -0.000000 0.000000
RightFoot -21.553594 -28.298188 14.166811
RightToeBase 23.506793 -0.000000 -0.000000
